<?xml version="1.0" encoding="UTF-8" standalone="no"?>
<!-- Created with Inkscape (http://www.inkscape.org/) -->

<svg class="icono"
   width="123.93297mm"
   height="285.18698mm"
   viewBox="0 0 123.93297 285.18698"
   version="1.1"
   id="svg1"
   xml:space="preserve"
   inkscape:version="1.4 (e7c3feb1, 2024-10-09)"
   sodipodi:docname="iconoc monadas.svg"
   xmlns:inkscape="http://www.inkscape.org/namespaces/inkscape"
   xmlns:sodipodi="http://sodipodi.sourceforge.net/DTD/sodipodi-0.dtd"
   xmlns="http://www.w3.org/2000/svg"
   xmlns:svg="http://www.w3.org/2000/svg"><sodipodi:namedview
     id="namedview1"
     pagecolor="#ffffff"
     bordercolor="#000000"
     borderopacity="0.25"
     inkscape:showpageshadow="2"
     inkscape:pageopacity="0.0"
     inkscape:pagecheckerboard="0"
     inkscape:deskcolor="#d1d1d1"
     inkscape:document-units="mm"
     inkscape:zoom="0.16833745"
     inkscape:cx="-14.851122"
     inkscape:cy="460.38478"
     inkscape:window-width="1440"
     inkscape:window-height="900"
     inkscape:window-x="0"
     inkscape:window-y="0"
     inkscape:window-maximized="0"
     inkscape:current-layer="layer1"
     inkscape:export-bgcolor="#ffffffff"><inkscape:page
       x="0"
       y="0"
       width="123.93297"
       height="285.18698"
       id="page2"
       margin="0"
       bleed="0" /></sodipodi:namedview><defs
     id="defs1"><inkscape:path-effect
       effect="fillet_chamfer"
       id="path-effect3"
       is_visible="true"
       lpeversion="1"
       nodesatellites_param="F,0,0,1,0,0,0,1 @ F,0,0,1,0,0,0,1 @ F,0,0,1,0,0,0,1 @ F,0,0,1,0,0,0,1 @ F,0,0,1,0,0,0,1 @ F,0,0,1,0,0,0,1 @ F,0,0,1,0,0,0,1 @ F,0,0,1,0,0,0,1 @ F,0,0,1,0,0,0,1 @ F,0,0,1,0,0,0,1 @ F,0,0,1,0,0,0,1 @ F,0,0,1,0,0,0,1 @ F,0,0,1,0,0,0,1 @ F,0,0,1,0,0,0,1 @ F,0,0,1,0,0,0,1 @ F,0,0,1,0,0,0,1 @ F,0,0,1,0,0,0,1 @ F,0,0,1,0,0,0,1 @ F,0,0,1,0,0,0,1 @ F,0,0,1,0,0,0,1 @ F,0,0,1,0,0.15075261,0,1 @ F,0,0,1,0,0,0,1"
       radius="0"
       unit="px"
       method="auto"
       mode="F"
       chamfer_steps="1"
       flexible="false"
       use_knot_distance="true"
       apply_no_radius="true"
       apply_with_radius="true"
       only_selected="false"
       hide_knots="false" /></defs><g
     inkscape:label="Capa 1"
     inkscape:groupmode="layer"
     id="layer1"
     transform="translate(346.69727,137.63083)"><path
       style="fill:none;stroke:#000000;stroke-width:4;stroke-dasharray:none"
       d="m -259.01881,51.144265 0.78689,-10.03286 11.21318,-4.13112 c 0,0 1.96723,14.95091 -12.00007,14.16398 z"
       id="path2"
       inkscape:export-filename="path2.svg"
       inkscape:export-xdpi="102.73896"
       inkscape:export-ydpi="102.73896" /><path
       style="fill:none;stroke:#000000;stroke-width:0.584093;stroke-dasharray:none"
       d="m 57.593078,201.35847 c 0,0 -6.89031,-0.42008 -7.873465,-4.75065 0,0 -0.585212,-3.81557 1.755636,-3.48786 l -1.50467,-2.04888 c 0,0 -1.2553,1.2553 -1.641546,1.23116 -0.386246,-0.0241 0.07242,-1.08632 0.07242,-1.08632 0,0 1.062178,-0.53109 1.062178,-1.52084 0,-0.98976 0.241404,-2.48646 0.241404,-2.48646 0,0 0.362105,-3.23481 5.069479,-1.93123 4.707373,1.30358 6.131655,5.98681 6.131655,5.98681 l 1.689827,0.0241 -0.09656,-17.16381 -1.593265,-0.0241 c 0,0 -0.168982,5.64885 -6.010953,6.05924 -5.841972,0.41038 -6.807587,1.88295 -6.807587,1.88295 0,0 -1.882949,1.30358 -1.641545,4.03144 0.241404,2.72786 -0.09656,4.41769 -0.09656,4.41769 l -0.965615,2.12435 c 0,0 -0.917334,2.34162 0.458667,4.44183 1.376002,2.10021 4.020079,5.49787 6.731543,6.32599 3.036147,0.92728 7.675324,2.72648 9.320984,-2.0312 0.02716,-0.0785 0.06897,-0.20677 0.09102,-0.28705 0.263969,-0.96135 0.07026,-1.9433 0.0305,-3.03271"
       id="path3"
       sodipodi:nodetypes="ccccccscsccccscsccsssc"
       inkscape:path-effect="#path-effect3"
       inkscape:original-d="m 57.593078,201.35847 c 0,0 -6.89031,-0.42008 -7.873465,-4.75065 0,0 -0.585212,-3.81557 1.755636,-3.48786 l -1.50467,-2.04888 c 0,0 -1.2553,1.2553 -1.641546,1.23116 -0.386246,-0.0241 0.07242,-1.08632 0.07242,-1.08632 0,0 1.062178,-0.53109 1.062178,-1.52084 0,-0.98976 0.241404,-2.48646 0.241404,-2.48646 0,0 0.362105,-3.23481 5.069479,-1.93123 4.707373,1.30358 6.131655,5.98681 6.131655,5.98681 l 1.689827,0.0241 -0.09656,-17.16381 -1.593265,-0.0241 c 0,0 -0.168982,5.64885 -6.010953,6.05924 -5.841972,0.41038 -6.807587,1.88295 -6.807587,1.88295 0,0 -1.882949,1.30358 -1.641545,4.03144 0.241404,2.72786 -0.09656,4.41769 -0.09656,4.41769 l -0.965615,2.12435 c 0,0 -0.917334,2.34162 0.458667,4.44183 1.376002,2.10021 4.020079,5.49787 6.731543,6.32599 3.066082,0.93642 7.76696,2.76204 9.368783,-2.17384 0.326992,-1.0076 0.115471,-2.03311 0.07372,-3.17712"
       transform="matrix(6.8482273,0,0,6.8482273,-653.44736,-1327.8803)" /><path
       style="fill:none;stroke:#000000;stroke-width:4;stroke-dasharray:none"
       d="m -246.96719,37.082315 18.09445,-8.52159 c 0,0 2.48353,-2.97405 2.48099,-5.77257 -0.002,-1.80109 -0.54573,-3.70894 -1.61974,-5.1548 -0.78855,-1.06161 -1.7973,-1.88142 -3.27993,-2.23191 -1.46138,-0.34583 -5.72627,-0.45814 -11.03369,1.42916 -1.84555,0.65606 -17.15428,7.45416 -18.38107,7.17297"
       id="path4"
       sodipodi:nodetypes="ccsassc" /><path
       style="fill:none;stroke:#000000;stroke-width:4;stroke-dasharray:none"
       d="m -260.42016,24.366185 c 0,0 -1.56659,-12.085 -2.56196,-14.7894297 -0.59799,-1.62467 -2.27843,-7.28679 -6.86105,-9.46164996 -3.24778,-1.54133004 -11.523,-2.13863004 -16.96945,-0.59853 -3.60384,1.01901 -6.40226,1.95016996 -9.35845,6.21722996 -2.13561,3.08259 -2.48103,5.7199097 -2.67841,6.6377797 -0.54848,2.55028 -1.39743,24.80442 -1.39743,24.80442"
       id="path5"
       sodipodi:nodetypes="cssassc" /><path
       style="fill:none;stroke:#000000;stroke-width:4;stroke-dasharray:none"
       d="m -252.76369,14.279095 c 0,0 5.79887,-4.16208 10.61568,-4.5829697 0,0 -15.94689,-17.2563 -18.37869,-17.53688 0,0 -3.55414,3.36707 -4.16209,5.28444 0,0 11.92509,12.11212 11.9251,16.8354097 z"
       id="path7" /><ellipse
       style="fill:none;stroke:#000000;stroke-width:4;stroke-dasharray:none"
       id="path8"
       cx="-281.05304"
       cy="-27.467657"
       rx="20.103634"
       ry="20.278193" /><path
       style="fill:none;stroke:#000000;stroke-width:4;stroke-dasharray:none"
       d="m -299.57975,69.042665 c 0,0 29.13809,12.73024 38.47359,7.921 0,0 24.71738,47.775845 25.58363,50.920955 0.86625,3.14512 1.57138,11.48845 -4.3054,14.55851 -4.70185,2.45626 -12.31217,2.89934 -16.07635,-2.55377 -3.76418,-5.45304 -25.28735,-47.083555 -25.28735,-47.083555 l -16.40785,46.677525 c 0,0 -3.18502,6.3468 -12.23764,6.0639 -9.05261,-0.28283 -11.00965,-7.77117 -11.00965,-7.77117 0,0 -1.31806,-7.44532 2.85216,-16.68084 3.71453,-8.2263 18.41486,-52.052555 18.41486,-52.052555 z"
       id="path6"
       sodipodi:nodetypes="cczszccscsc" /></g></svg>
