<?xml version="1.0" standalone="no"?>
<!DOCTYPE svg PUBLIC "-//W3C//DTD SVG 20010904//EN"
 "http://www.w3.org/TR/2001/REC-SVG-20010904/DTD/svg10.dtd">
<svg class="icono" version="1.0" xmlns="http://www.w3.org/2000/svg"
 width="512.000000pt" height="512.000000pt" viewBox="0 0 512.000000 512.000000"
 preserveAspectRatio="xMidYMid meet">

<g transform="translate(0.000000,512.000000) scale(0.100000,-0.100000)"
fill="currentColor" stroke="none">
<path d="M2244 4714 c-17 -8 -36 -26 -43 -40 -8 -18 -11 -177 -11 -539 l0
-515 -588 0 c-641 0 -616 2 -641 -58 -8 -20 -11 -114 -9 -326 l3 -298 28 -24
28 -24 589 0 590 0 2 -1226 3 -1226 28 -24 28 -24 305 0 c190 0 313 4 325 10
51 28 49 -24 49 1279 l0 1211 591 2 591 3 24 28 24 28 0 307 c0 343 0 343 -68
362 -23 6 -245 10 -604 10 l-568 0 0 516 c0 350 -3 522 -11 536 -23 43 -61 48
-356 48 -230 0 -283 -3 -309 -16z m496 -683 c0 -346 4 -518 11 -540 22 -62 9
-61 649 -61 l580 0 0 -180 0 -180 -591 0 -591 0 -29 -29 -29 -29 0 -1216 0
-1216 -180 0 -180 0 0 1221 0 1221 -29 29 -29 29 -591 0 -591 0 0 180 0 180
585 0 c646 0 632 -1 654 61 7 22 11 193 11 535 l0 504 175 0 175 0 0 -509z"/>
</g>
</svg>
