<?xml version="1.0" encoding="UTF-8" standalone="no"?>
<!-- Created with Inkscape (http://www.inkscape.org/) -->

<svg class="icono"
   width="429.52151mm"
   height="291.63315mm"
   viewBox="0 0 429.52151 291.63315"
   version="1.1"
   id="svg1"
   xml:space="preserve"
   inkscape:version="1.4 (e7c3feb1, 2024-10-09)"
   sodipodi:docname="iconoc monadas.svg"
   xmlns:inkscape="http://www.inkscape.org/namespaces/inkscape"
   xmlns:sodipodi="http://sodipodi.sourceforge.net/DTD/sodipodi-0.dtd"
   xmlns="http://www.w3.org/2000/svg"
   xmlns:svg="http://www.w3.org/2000/svg"><sodipodi:namedview
     id="namedview1"
     pagecolor="#ffffff"
     bordercolor="#000000"
     borderopacity="0.25"
     inkscape:showpageshadow="2"
     inkscape:pageopacity="0.0"
     inkscape:pagecheckerboard="0"
     inkscape:deskcolor="#d1d1d1"
     inkscape:document-units="mm"
     inkscape:zoom="0.16833745"
     inkscape:cx="-14.851122"
     inkscape:cy="460.38478"
     inkscape:window-width="1440"
     inkscape:window-height="900"
     inkscape:window-x="0"
     inkscape:window-y="0"
     inkscape:window-maximized="0"
     inkscape:current-layer="layer1"
     inkscape:export-bgcolor="#ffffffff"><inkscape:page
       x="0"
       y="0"
       width="429.52151"
       height="291.63315"
       id="page2"
       margin="0"
       bleed="0" /></sodipodi:namedview><defs
     id="defs1" /><g
     inkscape:label="Capa 1"
     inkscape:groupmode="layer"
     id="layer1"
     transform="translate(35.852483,-394.88954)"><path
       style="fill:none;stroke:#000000;stroke-width:3.96875;stroke-dasharray:none"
       d="M 121.06092,476.51132 118.74256,398.266 c 0,0 56.22067,10.43273 68.97174,1.73875 12.75107,-8.69384 49.26557,3.47758 49.26557,3.47758 0,0 -11.01227,34.19613 -2.89797,38.25334 8.11433,4.05712 5.21633,35.35526 5.21633,35.35526 0,0 -43.46962,-11.59189 -51.58393,-6.37551 -8.11433,5.21629 -59.11859,9.853 -66.65338,5.7959 z"
       id="path9"
       inkscape:export-filename="path9.svg"
       inkscape:export-xdpi="102.73896"
       inkscape:export-ydpi="102.73896" /><path
       style="fill:none;stroke:#000000;stroke-width:3.96875;stroke-dasharray:none"
       d="m 25.427711,598.75752 c 0,0 -0.57984,-85.73179 30.13892,-93.26648 0,0 8.620747,-47.52392 11.012403,-53.32271 2.391509,-5.79879 3.871278,-9.61403 11.012285,-15.20943 6.555256,-5.13647 18.789554,-14.92944 41.393731,-15.5091"
       id="path10"
       sodipodi:nodetypes="cczsc" /><path
       style="fill:none;stroke:#000000;stroke-width:3.96875;stroke-dasharray:none"
       d="m 326.17159,598.77696 c 0,0 0.57963,-85.20053 -30.1389,-92.73522 0,0 -8.62073,-47.52394 -11.01233,-53.32275 -2.39156,-5.79879 -3.87127,-9.61402 -11.01229,-15.2094 -6.55521,-5.13647 -18.78959,-14.92947 -41.39381,-15.50913"
       id="path10-0"
       sodipodi:nodetypes="cczsc" /><path
       d="m 336.02495,597.00668 c 0,0 -34.89742,10.99727 -74.72878,19.83772 2.66048,5.18089 3.58124,12.55381 3.58525,20.17541 -0.0468,3.69506 -0.44898,7.3319 -1.18209,10.69204 25.34755,-3.91361 45.93196,-7.90473 48.64967,-8.71384 5.40723,-1.60986 16.99376,-5.19312 19.98006,-7.00101 2.98629,-1.80788 11.12476,-2.77844 12.81017,-17.59167 1.87265,-16.45899 -9.11428,-17.39865 -9.11428,-17.39865 z"
       style="fill:none;stroke:#000000;stroke-width:3.96875;stroke-dasharray:none"
       id="path19"
       sodipodi:nodetypes="ccccsssc" /><path
       d="m 240.75681,650.98795 c -1.24542,-4.19678 -1.9273,-9.02337 -1.9734,-13.96814 0.002,-5.76563 0.37629,-11.38278 1.98576,-16.05256 -19.33999,3.71298 -38.04503,6.44303 -53.6848,6.66803 -19.32046,0.27837 -46.41179,-3.48108 -73.16508,-8.37603 1.00185,3.9478 1.52854,8.35076 1.5343,12.82466 -0.056,7.36459 -1.09369,14.36896 -3.63867,19.43472 26.52389,2.63591 55.52921,4.92386 75.28392,4.41968 15.38701,-0.39309 34.75847,-2.4371 53.65797,-4.95036 z"
       style="fill:none;stroke:#000000;stroke-width:3.96875;stroke-dasharray:none"
       id="path16"
       sodipodi:nodetypes="cccscccsc" /><path
       d="m 92.491808,649.55009 a 13.04775,27.414935 0 0 1 -3.131379,-17.46618 13.04775,27.414935 0 0 1 2.923918,-17.02237 c -38.977536,-7.97801 -72.248446,-16.79558 -72.248446,-16.79558 0,0 -15.1722905,6.98726 -2.76948,28.78067 0,0 10.98678,15.58964 34.02048,17.53862 0,0 17.847321,2.38426 41.204907,4.96484 z"
       style="fill:none;stroke:#000000;stroke-width:3.96875;stroke-dasharray:none"
       id="path15" /><ellipse
       style="fill:none;fill-opacity:1;stroke:#000000;stroke-width:3.96875;stroke-dasharray:none"
       id="path20"
       cx="102.58297"
       cy="632.33392"
       rx="12.842114"
       ry="27.369818" /><ellipse
       style="fill:none;fill-opacity:1;stroke:#000000;stroke-width:3.96875;stroke-dasharray:none"
       id="path20-8"
       cx="251.72768"
       cy="635.59735"
       rx="12.842114"
       ry="27.369818" /><ellipse
       style="fill:none;stroke:#000000;stroke-width:3.96875;stroke-dasharray:none"
       id="path21"
       cx="56.109833"
       cy="558.70551"
       rx="12.93995"
       ry="19.668724" /><ellipse
       style="fill:none;fill-opacity:1;stroke:#000000;stroke-width:3.96875;stroke-dasharray:none"
       id="path21-5"
       cx="295.47266"
       cy="558.42426"
       rx="12.93995"
       ry="19.668724" /><ellipse
       style="fill:none;fill-opacity:1;stroke:#000000;stroke-width:3.96875;stroke-dasharray:none"
       id="path22"
       cx="49.54232"
       cy="591.28851"
       rx="8.5403671"
       ry="7.7639699" /><ellipse
       style="fill:none;fill-opacity:1;stroke:#000000;stroke-width:3.96875;stroke-dasharray:none"
       id="path22-3"
       cx="301.47095"
       cy="591.58594"
       rx="8.5403671"
       ry="7.7639699" /><ellipse
       style="fill:none;stroke:#000000;stroke-width:3.96875;stroke-dasharray:none"
       id="path23"
       cx="175.4464"
       cy="553.46912"
       rx="6.5532479"
       ry="6.7352824" /><ellipse
       style="fill:none;stroke:#000000;stroke-width:3.96875;stroke-dasharray:none"
       id="path23-5"
       cx="210.14012"
       cy="532.2522"
       rx="5.2281737"
       ry="5.3734007" /><ellipse
       style="fill:none;stroke:#000000;stroke-width:3.96875;stroke-dasharray:none"
       id="path23-5-7"
       cx="139.44353"
       cy="533.86212"
       rx="5.2281737"
       ry="5.3734007" /><path
       style="fill:none;stroke:#000000;stroke-width:3.96875;stroke-dasharray:none"
       d="m 176.04649,523.70117 c -1.43237,-8.38951 -13.74877,-7.03032 -13.74877,-7.03032 0.32959,-2.46979 2.79905,-10.37291 -5.43347,-13.83062 -8.23253,-3.45769 -12.84277,10.04372 -12.84277,10.04372 0,0 0.49392,-15.14787 -10.70221,-12.34879 -11.19619,2.79899 -7.4093,16.95899 -7.4093,16.95899 0,0 -7.5739,-3.1284 -12.51335,1.64646 -4.93953,4.77494 -0.32962,17.61734 4.93945,18.44083 0,0 -9.38509,8.23252 -4.61025,16.79436 4.77494,8.56185 15.97115,0.32961 15.97115,0.32961 0,0 -2.63446,10.70231 5.92739,12.18416 8.56184,1.4818 11.0316,-4.11633 11.0316,-4.11633 0,0 4.83244,-1.25 4.83244,-4.72004"
       id="path24" /><path
       style="fill:none;stroke:#000000;stroke-width:3.96875;stroke-dasharray:none"
       d="m 200.49864,564.21595 c 12.4818,2.96697 13.19213,-8.05345 13.19213,-8.05345 0,0 3.42639,4.52191 10.83356,1.35245 7.40717,-3.16959 2.73962,-12.26119 2.73962,-12.26119 0,0 11.86325,5.03078 14.3384,-3.71565 2.47518,-8.74645 -7.75401,-14.1648 -7.75401,-14.1648 4.57721,-1.87042 5.98754,-14.44363 0.50915,-17.69444 -5.47835,-3.25004 -11.6418,1.19354 -11.6418,1.19354 0,0 0.38562,-13.58533 -10.31454,-13.7142 -10.70012,-0.129 -7.01222,13.43163 -7.01222,13.43163 0,0 -7.04914,-11.19395 -13.73638,-6.31229 -6.68711,4.88156 -2.76721,11.48295 -1.94157,13.64069 0,0 -9.05483,-4.97398 -11.47484,7.27701"
       id="path24-6" /><path
       style="fill:none;stroke:#000000;stroke-width:3.96875;stroke-dasharray:none"
       d="m 178.68994,529.12773 c 0,0 0.30254,-7.56246 -9.67987,-8.46989 -9.98229,-0.90754 -9.83107,16.18345 -9.83107,16.18345 0,0 -10.58724,-0.45375 -12.856,6.04989 -2.26862,6.50362 0.45375,15.27602 8.77239,15.42719 0,0 -9.52858,7.4112 -4.08373,13.76354 5.44497,6.35242 14.67098,2.11749 14.67098,2.11749 0,0 -0.75627,12.85605 8.16736,11.64609 8.92355,-1.21002 9.67983,-7.56246 9.67983,-9.83109 0,0 6.20114,6.95732 12.5535,0.75628 6.3524,-6.20112 4.53739,-10.8898 4.53739,-10.8898 0,0 0,-3.7812 -5.29355,-6.20113 0,0 14.51972,-1.96633 11.19225,-11.94864 -3.32742,-9.98223 -15.72978,-6.04987 -15.72978,-6.04987 0,0 12.25109,-9.67985 6.20126,-15.72972 -6.05,-6.04987 -18.30096,3.17621 -18.30096,3.17621 z"
       id="path25" /><path
       style="fill:none;stroke:#000000;stroke-width:3.96875;stroke-dasharray:none"
       d="m 60.307857,479.48436 c 0,0 -24.069436,-20.36602 -45.095326,-20.12944 -20.7003505,0.2334 -24.8841805,4.0548 -27.42994,6.31767 -2.54577,2.26288 -13.436026,12.87024 -3.9601,32.52921 9.4758995,19.65894 47.01207,4.32399 47.01207,4.32399 0,0 23.27755,-6.94053 25.678441,-4.32233"
       id="path31"
       sodipodi:nodetypes="cssscc" /><path
       style="fill:none;stroke:#000000;stroke-width:3.96875;stroke-dasharray:none"
       d="m 291.45431,480.2549 c 0,0 26.53855,-21.94876 47.5645,-21.71213 20.70035,0.23336 24.88418,4.05475 27.42994,6.31763 2.54579,2.26287 13.436,12.8702 3.96012,32.52916 -9.47594,19.65896 -47.01216,4.32399 -47.01216,4.32399 0,0 -26.22908,-5.38181 -28.62994,-2.76359"
       id="path31-3"
       sodipodi:nodetypes="cssscc" /><path
       style="fill:none;stroke:#000000;stroke-width:3.96875;stroke-dasharray:none"
       d="m 38.839291,500.32322 c 0,0 -24.18482,34.08499 -37.90359049,36.06499 -13.71882951,1.98004 -31.39777551,17.25468 -31.39777551,17.25468 l 30.26624551,-0.28302 1.13153,27.15477 c 0,0 25.53953049,-41.68775 33.03537049,-46.63789"
       id="path32"
       sodipodi:nodetypes="cscccc" /><path
       style="fill:none;stroke:#000000;stroke-width:3.96875;stroke-dasharray:none"
       d="m 316.25049,529.7471 c 0,0 39.55488,41.90487 40.02486,50.83474 0.47002,8.92994 3.05499,-26.55467 3.05499,-26.55467 L 387.53,552.61723 c 0,0 -31.89834,-21.08931 -36.01583,-21.90598 -4.11747,-0.81698 -31.19336,-25.79853 -30.48836,-29.08845"
       id="path33"
       sodipodi:nodetypes="cscczc" /><path
       style="fill:none;fill-opacity:1;stroke:#000000;stroke-width:3.96875;stroke-dasharray:none"
       d="m 294.54891,496.42117 c 0,0 29.91501,-17.09426 51.81703,-16.4533 21.90204,0.64145 19.33791,11.00443 19.33791,11.00443 0,0 -1.92311,11.75232 -14.74383,6.30357 -12.82068,-5.44874 -51.38963,-5.87618 -56.41111,-0.85432 z"
       id="path34" /><path
       style="fill:none;fill-opacity:1;stroke:#000000;stroke-width:3.96875;stroke-dasharray:none"
       d="m 57.793357,490.11764 c 0,0 -30.983426,-14.42329 -52.0307265,-7.90613 -21.0472895,6.51718 -14.63693,16.98746 -14.53012,17.41481 0.10718,0.42763 4.16673,4.27355 15.0643,-2.35045 10.8976205,-6.62408 35.7912005,-7.47877 51.4965465,-7.15823 z"
       id="path35" /><path
       style="fill:none;stroke:#000000;stroke-width:3.96875;stroke-dasharray:none"
       d="m 47.693151,643.95461 c 0,0 -0.28673,28.64934 0.64706,31.52516 0.74881,2.30712 5.07679,9.60057 20.169282,9.02708 15.092377,-0.57325 19.368512,-4.9076 20.085968,-7.73374 0.65732,-2.59031 0.485514,-27.96847 0.485514,-27.96847"
       id="path36"
       sodipodi:nodetypes="cszsc" /><path
       style="fill:none;stroke:#000000;stroke-width:3.96875;stroke-dasharray:none"
       d="m 308.35278,639.93737 c 0,0 0.28641,31.11461 -0.64669,33.99046 -0.74869,2.30712 -5.07674,9.60055 -20.16915,9.02708 -15.09243,-0.57326 -19.36861,-4.9076 -20.086,-7.73374 -0.65761,-2.59032 -0.48509,-27.96849 -0.48509,-27.96849"
       id="path36-9"
       sodipodi:nodetypes="cszsc" /><path
       style="fill:none;stroke:#000000;stroke-width:3.96875;stroke-dasharray:none"
       d="m 119.42071,440.77425 c 0,0 -36.552894,10.73583 -41.153991,28.62885 -4.601049,17.89307 3.578615,21.21603 3.578615,21.21603 l 103.523926,-0.25574"
       id="path37" /><path
       style="fill:none;stroke:#000000;stroke-width:3.96875;stroke-dasharray:none"
       d="m 233.02826,440.83178 c 0,0 37.16904,6.52577 41.15398,28.62884 3.27803,18.18201 -3.5786,21.21601 -3.5786,21.21601 l -85.35136,-0.30068"
       id="path37-2"
       sodipodi:nodetypes="cscc" /><path
       style="fill:none;stroke:#000000;stroke-width:3.96875;stroke-dasharray:none"
       d="m 295.99928,505.92494 c 0,0 -27.29647,32.89079 -27.2,51.50635"
       id="path38" /><path
       style="fill:none;stroke:#000000;stroke-width:3.96875;stroke-dasharray:none"
       d="m 55.92357,505.59607 c 0,0 34.517131,22.15734 30.598177,57.57885"
       id="path39"
       sodipodi:nodetypes="cc" /><path
       style="fill:none;stroke:#000000;stroke-width:3.96875;stroke-dasharray:none"
       d="m 143.23029,565.52031 0.80575,30.76541 62.20246,0.13454 1.07475,-32.10875"
       id="path40" /></g></svg>
