<?xml version="1.0" standalone="no"?>
<!DOCTYPE svg PUBLIC "-//W3C//DTD SVG 20010904//EN"
 "http://www.w3.org/TR/2001/REC-SVG-20010904/DTD/svg10.dtd">
<svg class="icono" version="1.0" xmlns="http://www.w3.org/2000/svg"
 width="512.000000pt" height="512.000000pt" viewBox="0 0 512.000000 512.000000"
 preserveAspectRatio="xMidYMid meet">

<g transform="translate(0.000000,512.000000) scale(0.100000,-0.100000)"
fill="currentColor" stroke="none">
<path d="M1934 5108 c-41 -19 -192 -303 -214 -402 -44 -199 170 -369 355 -282
94 44 155 135 155 231 0 60 -44 173 -122 313 -80 144 -112 170 -174 140z m90
-337 c53 -111 55 -140 10 -182 -59 -55 -154 -13 -154 67 0 34 75 214 90 214 3
0 28 -45 54 -99z"/>
<path d="M2506 5097 c-59 -59 -190 -332 -202 -420 -19 -137 110 -277 256 -277
155 0 283 149 253 295 -20 96 -146 348 -200 403 -29 29 -77 29 -107 -1z m104
-319 c51 -107 55 -148 16 -187 -57 -56 -157 -18 -159 61 -1 33 78 218 93 218
4 0 26 -41 50 -92z"/>
<path d="M3091 5092 c-35 -38 -123 -198 -166 -303 -42 -103 -45 -162 -11 -234
56 -120 182 -180 307 -145 124 35 207 172 179 296 -13 59 -81 205 -146 313
-63 106 -111 127 -163 73z m108 -311 c48 -104 52 -147 17 -188 -53 -62 -161
-19 -160 65 0 35 79 212 95 212 3 0 25 -40 48 -89z"/>
<path d="M1890 4035 l0 -275 -427 0 c-409 0 -430 -1 -473 -21 -55 -25 -95 -62
-123 -114 -20 -37 -22 -55 -22 -220 l0 -180 32 -67 c17 -37 52 -89 77 -116
l46 -49 0 -346 0 -346 -362 -3 -363 -3 -49 -25 c-65 -33 -126 -94 -156 -155
-24 -48 -25 -59 -28 -278 -2 -182 0 -240 13 -289 25 -100 73 -184 147 -260
l67 -70 3 -585 3 -585 28 -24 28 -24 2229 0 2229 0 28 24 28 24 3 585 3 585
67 70 c74 76 122 160 147 260 13 49 15 107 13 289 -3 219 -4 230 -28 278 -30
61 -91 122 -156 155 l-49 25 -362 3 -363 3 0 346 0 346 46 49 c25 27 60 79 77
116 l32 67 0 180 c0 165 -2 183 -22 220 -28 52 -68 89 -123 114 -43 20 -64 21
-472 21 l-428 0 0 275 0 275 -80 0 -80 0 0 -275 0 -275 -215 0 -215 0 0 275 0
275 -80 0 -80 0 0 -275 0 -275 -215 0 -215 0 0 275 0 275 -80 0 -80 0 0 -275z
m2197 -459 l28 -24 0 -139 c0 -158 -9 -196 -64 -256 -47 -52 -108 -79 -180
-79 -132 0 -228 90 -246 230 -5 39 -13 57 -32 72 -60 47 -133 3 -133 -80 0
-73 -59 -158 -135 -195 -75 -37 -150 -36 -223 2 -82 42 -111 90 -137 225 -12
62 -79 87 -128 48 -19 -15 -27 -33 -32 -72 -19 -144 -111 -230 -245 -230 -134
0 -226 86 -245 230 -5 39 -13 57 -32 72 -49 39 -116 14 -128 -48 -26 -135 -55
-183 -137 -225 -90 -47 -190 -36 -274 28 -39 30 -84 117 -84 163 0 85 -72 130
-133 82 -19 -15 -27 -33 -32 -72 -9 -69 -25 -106 -64 -151 -94 -106 -266 -106
-362 0 -55 60 -64 98 -64 256 l0 139 28 24 28 24 1499 0 1499 0 28 -24z
m-2463 -551 c162 -150 407 -150 562 1 l46 45 48 -45 c161 -151 399 -151 560 0
l48 45 46 -45 c155 -151 400 -151 561 -1 l48 45 47 -44 c88 -82 208 -124 315
-111 l56 7 -3 -113 -3 -114 -1395 0 -1395 0 -3 114 -3 113 56 -7 c108 -13 242
35 321 116 21 21 39 39 39 39 1 0 23 -20 49 -45z m2336 -610 l0 -115 -1400 0
-1400 0 0 115 0 115 1400 0 1400 0 0 -115z m870 -297 c30 -15 53 -37 67 -63
21 -37 23 -52 23 -225 0 -256 -21 -332 -121 -432 -181 -181 -488 -149 -626 66
-32 49 -63 139 -63 181 0 74 -30 115 -85 115 -55 0 -85 -41 -85 -115 0 -17 -9
-57 -19 -87 -60 -174 -207 -278 -390 -278 -208 1 -375 157 -398 373 -8 74 -34
107 -86 107 -50 0 -72 -31 -85 -118 -21 -147 -105 -265 -232 -326 -60 -29 -73
-31 -170 -31 -97 0 -110 2 -170 31 -127 61 -211 179 -232 326 -13 87 -35 118
-85 118 -52 0 -78 -33 -86 -107 -23 -216 -190 -372 -398 -373 -183 0 -330 104
-390 278 -10 30 -19 70 -19 87 0 74 -30 115 -85 115 -55 0 -85 -41 -85 -115 0
-17 -9 -57 -19 -87 -62 -180 -215 -285 -404 -276 -103 4 -194 44 -266 116
-100 100 -121 176 -121 432 0 173 2 188 23 225 14 26 37 48 67 63 l44 22 2226
0 2226 0 44 -22z m-3641 -838 c72 -72 156 -121 247 -145 76 -21 221 -21 298 0
117 31 242 117 307 211 l30 44 44 -57 c157 -209 459 -276 700 -156 77 39 142
92 190 156 l44 57 30 -44 c65 -94 190 -180 307 -211 77 -21 222 -21 298 0 119
32 261 132 317 222 l23 36 15 -24 c56 -86 175 -180 275 -218 100 -37 272 -45
349 -15 16 6 17 -9 17 -210 l0 -216 -2120 0 -2120 0 0 216 c0 201 1 216 17
210 72 -28 234 -23 334 10 100 33 231 131 281 213 l22 34 15 -24 c8 -13 44
-53 80 -89z m3491 -925 l0 -195 -2120 0 -2120 0 0 195 0 195 2120 0 2120 0 0
-195z"/>
</g>
</svg>
