<?xml version="1.0" encoding="UTF-8" standalone="no"?>
<!-- Created with Inkscape (http://www.inkscape.org/) -->

<svg class="icono"
   width="264.09476mm"
   height="227.08267mm"
   viewBox="0 0 264.09476 227.08267"
   version="1.1"
   id="svg1"
   xml:space="preserve"
   xmlns="http://www.w3.org/2000/svg"
   xmlns:svg="http://www.w3.org/2000/svg"><defs
     id="defs1" /><g
     id="layer1"
     transform="translate(4.9779655,-23.306476)"><text
       xml:space="preserve"
       style="font-size:27.876px;text-align:start;writing-mode:lr-tb;direction:ltr;text-anchor:start;fill:#939393;fill-opacity:1;stroke:none;stroke-width:0.60957;stroke-dasharray:none"
       x="-7.7002311"
       y="85.737617"
       id="text40-7"><tspan
         id="tspan40-4"
         style="fill:#939393;fill-opacity:1;stroke:none;stroke-width:0.60957;stroke-dasharray:none"
         x="-7.7002311"
         y="85.737617">MUESTRA</tspan></text><text
       xml:space="preserve"
       style="font-size:27.876px;text-align:start;writing-mode:lr-tb;direction:ltr;text-anchor:start;fill:#939393;fill-opacity:1;stroke:none;stroke-width:0.60957;stroke-dasharray:none"
       x="123.27574"
       y="235.96178"
       id="text40-7-8"><tspan
         id="tspan40-4-9"
         style="fill:#939393;fill-opacity:1;stroke:none;stroke-width:0.60957;stroke-dasharray:none"
         x="123.27574"
         y="235.96178">MUESTRA</tspan></text><path
       style="fill:none;stroke:#000000;stroke-width:1.0752;stroke-dasharray:none;stroke-opacity:1"
       d="m 60.906742,40.736237 2.14063,185.378753 -19.693814,16.69692 162.259922,0.42813 -19.2657,-16.69693 0.42814,-184.522494 z"
       id="path11" /><path
       style="fill:none;stroke:#000000;stroke-width:1.0752;stroke-dasharray:none;stroke-opacity:1"
       d="M 43.786831,242.85932 32.185896,243.34635 49.734832,226.30363 48.382646,41.469537 41.669214,41.049949 41.249625,24.685962 208.24622,23.846784 v 18.042343 l -7.97221,-0.41959 V 225.6693 l 17.20318,16.78358 -11.59626,0.85483"
       id="path12" /><path
       style="fill:none;stroke:#000000;stroke-width:1.0752;stroke-dasharray:none;stroke-opacity:1"
       d="m 218.1109,242.83765 -0.19435,7.01313 -185.818476,-0.27307 -0.723036,-5.7078"
       id="path13" /><path
       style="fill:none;stroke:#000000;stroke-width:1.0752;stroke-dasharray:none;stroke-opacity:1"
       d="m 124.91996,213.35252 c 26.72988,6.62333 53.31209,-100.94898 53.29264,-103.25721 -0.008,-1.02877 -5.11279,-35.448705 -54.19562,-33.403593 -49.082838,2.045124 -53.979716,30.136403 -53.513927,36.471273 0.372088,5.06049 27.450476,100.66263 54.416907,100.18953 z"
       id="path14" /><path
       style="fill:none;stroke:#000000;stroke-width:1.0752;stroke-dasharray:none;stroke-opacity:1"
       d="m 103.487,77.917647 c 0,0 -2.04015,-15.471196 2.21017,-20.231567 4.25034,-4.760371 18.70146,-4.930382 18.70146,-4.930382 0,0 20.40158,-2.04016 22.10171,11.730912 1.70014,13.771063 -0.51004,13.60105 -0.51004,13.60105"
       id="path17" /><path
       style="fill:none;stroke:#000000;stroke-width:1.0752;stroke-dasharray:none;stroke-opacity:1"
       d="m 120.31831,212.56811 0.51004,23.46183 7.48058,0.34002 v -22.95178"
       id="path18" /><path
       style="fill:none;stroke:#000000;stroke-width:1.0752;stroke-dasharray:none;stroke-opacity:1"
       d="m 120.22956,233.72174 -1.41163,-0.18215 -5.10011,3.0965 21.94867,-0.0455 -4.91796,-2.82327 -1.91254,-0.0455"
       id="path26" /><path
       style="fill:none;stroke:#000000;stroke-width:1.0752;stroke-dasharray:none;stroke-opacity:1"
       d="m 112.26065,236.95484 v 3.73401 l 24.63533,0.31876 0.0455,-4.05277"
       id="path27" /><path
       style="fill:none;stroke:#000000;stroke-width:1.0752;stroke-dasharray:none;stroke-opacity:1"
       d="m 120.61706,41.233123 v 11.246914 l 7.83695,-0.119649 0.11964,-11.067442"
       id="path28" /><path
       style="fill:none;stroke:#000000;stroke-width:1.0752;stroke-dasharray:none;stroke-opacity:1"
       d="m 177.40244,113.84696 c 0,0 -8.07513,2.64966 -12.61739,1.89261 -4.54227,-0.75704 -8.70601,-5.17313 -14.76237,-4.79461 -6.05634,0.37852 -7.57044,5.04696 -15.39322,3.78522 -7.82279,-1.26174 -7.57044,-5.804 -13.1221,-4.79462 -5.55165,1.0094 -8.57982,5.42549 -15.14087,4.79462 -6.561052,-0.63087 -8.579834,-6.05635 -13.75297,-3.28052"
       id="path42" /><path
       style="fill:none;stroke:#000000;stroke-width:1.0752;stroke-dasharray:none;stroke-opacity:1"
       d="m 77.667762,136.62082 c 0,0 1.483284,3.85654 6.823096,2.22492 5.339814,-1.6316 5.488143,-5.19148 10.976285,-5.93311 5.488137,-0.74165 6.674767,3.11489 12.162907,3.11489 5.48814,0 9.93799,-7.11976 15.72278,-5.48814 5.7848,1.6316 4.30152,5.63645 10.53129,5.19148 6.22979,-0.44499 6.22979,-2.0766 12.31125,-2.96656 6.08144,-0.88998 6.97142,0.29664 10.67962,1.48327"
       id="path45" /><path
       style="fill:none;stroke:#000000;stroke-width:1.0752;stroke-dasharray:none;stroke-opacity:1"
       d="m 165.27914,154.20254 c 0,0 0.74163,-3.26322 -3.85654,-2.37324 -4.59817,0.88997 -5.48814,4.74649 -11.71793,3.70819 -6.22977,-1.03829 -9.34467,-6.82309 -15.87111,-4.44984 -6.52643,2.37325 -7.26807,5.33982 -12.45956,3.85654 -5.19149,-1.48329 -4.89483,-7.11976 -10.67963,-3.26322 -5.7848,3.85652 -6.37811,4.89482 -11.569596,4.30151"
       id="path46" /><path
       style="fill:none;stroke:#000000;stroke-width:1.0752;stroke-dasharray:none;stroke-opacity:1"
       d="m 89.712471,170.40614 c 0,0 -0.741643,-1.92828 3.559875,-2.66991 4.301514,-0.74164 6.526437,3.11488 11.272934,3.11488 4.7465,0 9.04802,-3.41154 14.38784,-3.11488 5.33981,0.29666 6.08145,4.89483 12.60789,3.26321 6.52644,-1.6316 9.64132,-4.30151 14.98115,-3.26321"
       id="path47" /><path
       style="fill:none;stroke:#000000;stroke-width:1.0752;stroke-dasharray:none;stroke-opacity:1"
       d="m 154.37786,182.53721 c 0,0 1.18663,-2.07659 -3.85654,-1.77993 -5.04316,0.29665 -10.08631,3.26322 -13.64619,3.11489 -3.55987,-0.14833 -8.15804,-3.70821 -12.01458,-2.81824 -3.85653,0.88998 -7.71306,3.41155 -12.45956,2.52158 -4.7465,-0.88997 -8.15805,-6.08146 -10.67963,-3.85654"
       id="path48" /><path
       style="fill:none;stroke:#000000;stroke-width:1.0752;stroke-dasharray:none;stroke-opacity:1"
       d="m 105.32858,198.37241 c 0,0 0.78068,2.21935 5.23053,1.62604 4.44984,-0.59332 5.63647,-2.96657 9.493,-2.66991 3.85653,0.29666 2.37324,1.92826 6.97142,2.22492 4.59817,0.29666 5.48814,-1.18663 8.60304,-2.37325"
       id="path51" /><path
       style="fill:none;stroke:#000000;stroke-width:1.0752;stroke-dasharray:none;stroke-opacity:1"
       d="m 80.419529,90.887823 c 0,0 -0.338086,6.085567 10.987835,4.733217 11.325916,-1.352349 10.818786,-5.916522 19.778096,-6.254612 8.95931,-0.338091 6.93079,5.578444 15.21393,4.057049 8.28313,-1.521395 4.05704,-8.114098 14.53775,-4.39514"
       id="path54" /><path
       style="fill:none;stroke:#000000;stroke-width:1.0752;stroke-dasharray:none;stroke-opacity:1"
       d="m 106.6844,201.09036 c 0,0 -0.29426,4.8554 0.2207,5.37037 0.51497,0.51496 -6.10603,-1.76561 -7.356668,-1.39777 0,0 7.798068,7.13598 8.533738,11.03501 0,0 -8.386604,-4.92897 -10.005072,-3.53121 0,0 5.076102,3.53121 6.768142,8.09235 1.69203,4.56113 10.07863,3.45763 10.07863,3.45763 0,0 4.41401,-0.58854 5.59107,-1.61847"
       id="path55" /><path
       style="fill:none;stroke:#000000;stroke-width:1.0752;stroke-dasharray:none;stroke-opacity:1"
       d="m 140.15725,206.3136 c 0,0 5.22325,-1.47134 6.76814,-1.39778 0,0 -8.46017,8.23948 -8.31303,11.40285 0,0 7.35667,-4.56114 10.22576,-4.04617 0,0 -5.14966,4.92897 -6.47387,7.9452 -1.32419,3.01624 -5.88533,3.75191 -5.88533,3.75191 0,0 -6.10604,0.80923 -7.65093,-0.6621"
       id="path56" /><path
       style="fill:none;stroke:#000000;stroke-width:1.0752;stroke-dasharray:none;stroke-opacity:1"
       d="m 93.648483,195.52245 c 0,0 -0.07928,6.18392 1.506336,6.10464 1.585621,-0.0793 1.347777,-1.50634 1.347777,-1.50634 0,0 -1.902743,-1.18922 -2.854113,-4.5983 z"
       id="path57" /><path
       style="fill:none;stroke:#000000;stroke-width:1.0752;stroke-dasharray:none;stroke-opacity:1"
       d="m 91.9043,205.51186 c 0,0 -1.268496,5.23254 0.79281,4.91541 2.061306,-0.31712 1.347777,-1.6649 1.347777,-1.6649 0,0 -1.6649,-0.31712 -2.140587,-3.25051 z"
       id="path58" /><path
       style="fill:none;stroke:#000000;stroke-width:1.0752;stroke-dasharray:none;stroke-opacity:1"
       d="m 156.0426,204.63976 c 0,0 -0.71354,3.01267 -2.21987,3.56764 -1.50634,0.55497 0.39641,1.82347 1.03065,1.42706 0.63425,-0.39641 1.90275,-1.6649 1.18922,-4.9947 z"
       id="path59" /><path
       style="fill:none;stroke:#000000;stroke-width:1.0752;stroke-dasharray:none;stroke-opacity:1"
       d="m 151.91999,195.83958 c 0,0 -1.42706,4.43972 -2.45771,4.67757 -1.03065,0.23784 -0.39641,1.42705 0.31712,1.26849 0.71353,-0.15855 2.29915,-0.0793 2.14059,-5.94606 z"
       id="path60" /><rect
       style="fill:none;stroke:#000000;stroke-width:0.597333;stroke-dasharray:none;stroke-opacity:1"
       id="rect60-4"
       width="1.2945515"
       height="1.2945515"
       x="132.79077"
       y="35.774811"
       transform="rotate(10.067164)" /><rect
       style="fill:none;stroke:#000000;stroke-width:0.597333;stroke-dasharray:none;stroke-opacity:1"
       id="rect60-4-9"
       width="1.2945515"
       height="1.2945515"
       x="135.49713"
       y="31.529697"
       transform="rotate(10.067164)" /><rect
       style="fill:none;stroke:#000000;stroke-width:0.597333;stroke-dasharray:none;stroke-opacity:1"
       id="rect60-4-7"
       width="1.2945515"
       height="1.2945515"
       x="143.67351"
       y="33.575226"
       transform="rotate(10.067164)" /><rect
       style="fill:none;stroke:#000000;stroke-width:0.597333;stroke-dasharray:none;stroke-opacity:1"
       id="rect60-4-5"
       width="1.2945515"
       height="1.2945515"
       x="143.29601"
       y="40.657391"
       transform="rotate(10.067164)" /><rect
       style="fill:none;stroke:#000000;stroke-width:0.597333;stroke-dasharray:none;stroke-opacity:1"
       id="rect60-4-0"
       width="1.2945515"
       height="1.2945515"
       x="137.07158"
       y="41.762451"
       transform="rotate(10.067164)" /><rect
       style="fill:none;stroke:#000000;stroke-width:0.597333;stroke-dasharray:none;stroke-opacity:1"
       id="rect60-4-55"
       width="1.2945515"
       height="1.2945515"
       x="132.33333"
       y="45.81398"
       transform="rotate(10.067164)" /><rect
       style="fill:none;stroke:#000000;stroke-width:0.597333;stroke-dasharray:none;stroke-opacity:1"
       id="rect60-4-92"
       width="1.2945515"
       height="1.2945515"
       x="127.11246"
       y="43.530552"
       transform="rotate(10.067164)" /><rect
       style="fill:none;stroke:#000000;stroke-width:0.597333;stroke-dasharray:none;stroke-opacity:1"
       id="rect60-4-6"
       width="1.2945515"
       height="1.2945515"
       x="124.87302"
       y="38.149567"
       transform="rotate(10.067164)" /><rect
       style="fill:none;stroke:#000000;stroke-width:0.597333;stroke-dasharray:none;stroke-opacity:1"
       id="rect60-4-3"
       width="1.2945515"
       height="1.2945515"
       x="122.2874"
       y="34.435207"
       transform="rotate(10.067164)" /><rect
       style="fill:none;stroke:#000000;stroke-width:0.597333;stroke-dasharray:none;stroke-opacity:1"
       id="rect60-4-75"
       width="1.2945515"
       height="1.2945515"
       x="118.50312"
       y="40.243553"
       transform="rotate(10.067164)" /><rect
       style="fill:none;stroke:#000000;stroke-width:0.597333;stroke-dasharray:none;stroke-opacity:1"
       id="rect60-4-8"
       width="1.2945515"
       height="1.2945515"
       x="117.06316"
       y="46.598789"
       transform="rotate(10.067164)" /><rect
       style="fill:none;stroke:#000000;stroke-width:0.597333;stroke-dasharray:none;stroke-opacity:1"
       id="rect60-4-58"
       width="1.2945515"
       height="1.2945515"
       x="122.48473"
       y="48.204521"
       transform="rotate(10.067164)" /><rect
       style="fill:none;stroke:#000000;stroke-width:0.597333;stroke-dasharray:none;stroke-opacity:1"
       id="rect60-4-94"
       width="1.2945515"
       height="1.2945515"
       x="127.96156"
       y="50.121464"
       transform="rotate(10.067164)" /><rect
       style="fill:none;stroke:#000000;stroke-width:0.597333;stroke-dasharray:none;stroke-opacity:1"
       id="rect60-4-2"
       width="1.2945515"
       height="1.2945515"
       x="117.91224"
       y="53.189705"
       transform="rotate(10.067164)" /><rect
       style="fill:none;stroke:#000000;stroke-width:0.597333;stroke-dasharray:none;stroke-opacity:1"
       id="rect60-4-59"
       width="1.2945515"
       height="1.2945515"
       x="138.79907"
       y="47.876389"
       transform="rotate(10.067164)" /><rect
       style="fill:none;stroke:#000000;stroke-width:0.597333;stroke-dasharray:none;stroke-opacity:1"
       id="rect60-4-90"
       width="1.2945515"
       height="1.2945515"
       x="147.63846"
       y="43.417793"
       transform="rotate(10.067164)" /><rect
       style="fill:none;stroke:#000000;stroke-width:0.597333;stroke-dasharray:none;stroke-opacity:1"
       id="rect60-4-32"
       width="1.2945515"
       height="1.2945515"
       x="152.38234"
       y="44.822807"
       transform="rotate(10.067164)" /><rect
       style="fill:none;stroke:#000000;stroke-width:0.597333;stroke-dasharray:none;stroke-opacity:1"
       id="rect60-4-1"
       width="1.2945515"
       height="1.2945515"
       x="150.85553"
       y="38.031178"
       transform="rotate(10.067164)" /><rect
       style="fill:none;stroke:#000000;stroke-width:0.597333;stroke-dasharray:none;stroke-opacity:1"
       id="rect60-4-71"
       width="1.2945515"
       height="1.2945515"
       x="148.72661"
       y="33.27264"
       transform="rotate(10.067164)" /></g></svg>
